<svg width="49" height="41" viewBox="0 0 49 41" fill="none" xmlns="http://www.w3.org/2000/svg">
<g id="Iconly/Bold/Profile">
<path id="Subtract" fill-rule="evenodd" clip-rule="evenodd" d="M41.5515 41C45.7662 36.648 48.3601 30.7169 48.3601 24.1801C48.3601 10.8258 37.5343 0 24.1801 0C10.8258 0 0 10.8258 0 24.1801C0 30.7065 2.58564 36.629 6.78842 40.9791C9.04006 32.5387 16.1265 30.2251 24.1801 30.2251C32.2492 30.2251 39.285 32.6065 41.5515 41ZM24.1801 25.355C30.1024 25.355 34.8475 20.6096 34.8475 14.6915C34.8475 8.77338 30.1024 4.03001 24.1801 4.03001C18.2598 4.03001 13.5127 8.77338 13.5127 14.6915C13.5127 20.6096 18.2598 25.355 24.1801 25.355Z" fill="white"/>
</g>
</svg>
